<?xml version="1.0" encoding="UTF-8"?>
<svg id="Laag_1" data-name="Laag 1" xmlns="http://www.w3.org/2000/svg" xmlns:xlink="http://www.w3.org/1999/xlink" viewBox="0 0 841.89 595.28">
  <defs>
    <style>
      .cls-1 {
        fill: none;
      }

      .cls-2 {
        fill: url(#Naamloos_verloop_149);
      }

      .cls-3 {
        clip-path: url(#clippath);
      }
    </style>
    <clipPath id="clippath">
      <rect class="cls-1" x="164.26" y="36.44" width="513.37" height="522.39"/>
    </clipPath>
    <linearGradient id="Naamloos_verloop_149" data-name="Naamloos verloop 149" x1="-206.2" y1="459.14" x2="1032.5" y2="459.14" gradientUnits="userSpaceOnUse">
      <stop offset="0" stop-color="#efc981"/>
      <stop offset=".19" stop-color="#f2d78f"/>
      <stop offset=".41" stop-color="#f8f0e4"/>
      <stop offset=".73" stop-color="#e6c248"/>
      <stop offset=".95" stop-color="#eec687"/>
    </linearGradient>
  </defs>
  <g class="cls-3">
    <path class="cls-2" d="M-206.2,615.77h18.33l47.44,168.99h.54l48.24-168.99h22.64l48.24,168.99h.54l47.44-168.99h18.33l-55.52,190.82h-21.83l-48.24-169.8h-.54l-48.24,169.8h-21.83l-55.52-190.82ZM173.55,783.14c-6.29,9.52-14.06,16.35-23.31,20.48-9.26,4.13-19.45,6.2-30.59,6.2-9.53,0-18.15-1.62-25.87-4.85-7.73-3.24-14.38-7.77-19.94-13.61-5.57-5.84-9.84-12.76-12.8-20.75-2.97-8-4.45-16.85-4.45-26.55s1.52-17.97,4.58-25.87c3.05-7.9,7.37-14.78,12.94-20.62,5.57-5.84,12.13-10.42,19.67-13.74,7.55-3.32,15.9-4.99,25.06-4.99s17.92,1.66,25.2,4.99c7.28,3.33,13.38,7.73,18.33,13.21,4.94,5.48,8.67,11.73,11.18,18.73,2.51,7.01,3.77,14.11,3.77,21.29v11.32h-104.57c0,3.41.67,7.77,2.02,13.07,1.35,5.3,3.82,10.47,7.41,15.5,3.59,5.03,8.4,9.35,14.42,12.94,6.02,3.6,13.79,5.39,23.31,5.39,8.26,0,16.26-1.97,23.99-5.93,7.72-3.95,13.65-9.34,17.79-16.17l11.86,9.98ZM161.15,733.82c0-5.56-1.12-10.78-3.37-15.63-2.25-4.85-5.3-9.12-9.16-12.8-3.87-3.68-8.45-6.61-13.75-8.76-5.3-2.16-10.92-3.24-16.84-3.24-8.81,0-16.13,1.8-21.97,5.39-5.84,3.6-10.47,7.73-13.88,12.4-3.42,4.68-5.84,9.21-7.28,13.61-1.44,4.41-2.16,7.41-2.16,9.03h88.4ZM213.44,717.11c0-2.34-.09-5.16-.27-8.49-.18-3.32-.32-6.69-.4-10.11-.09-3.41-.23-6.6-.41-9.57-.18-2.97-.27-5.25-.27-6.87h16.17c.18,4.67.31,9.16.4,13.48.09,4.31.31,7.1.67,8.36,4.13-7.37,9.43-13.38,15.9-18.06,6.47-4.67,14.37-7.01,23.72-7.01,1.62,0,3.19.13,4.72.4,1.52.27,3.1.59,4.72.94l-1.88,15.9c-2.16-.72-4.23-1.08-6.2-1.08-7.01,0-13.07,1.12-18.19,3.37-5.12,2.25-9.34,5.35-12.67,9.3-3.33,3.96-5.8,8.59-7.41,13.88-1.62,5.3-2.43,11-2.43,17.11v67.92h-16.17v-89.48ZM303.18,602.84h16.17v135.84l61.45-56.33h23.72l-64.14,56.87,71.69,67.38h-24.53l-68.19-65.76v65.76h-16.17v-203.75ZM557.88,798.5c0,15.45-2.25,27.94-6.74,37.46-4.49,9.52-10.11,16.89-16.85,22.1-6.73,5.21-13.97,8.71-21.69,10.51-7.73,1.79-14.74,2.7-21.03,2.7s-12.44-.59-18.46-1.75c-6.02-1.17-11.72-2.87-17.11-5.12-5.39-2.25-10.29-4.99-14.68-8.22-4.41-3.23-8.22-6.92-11.46-11.05l12.67-11.86c5.75,8.09,12.93,14.01,21.56,17.79,8.62,3.77,17.79,5.66,27.49,5.66,8.27,0,15.23-1.08,20.89-3.23,5.65-2.16,10.33-4.99,14.01-8.49,3.68-3.5,6.56-7.37,8.62-11.59,2.07-4.23,3.6-8.45,4.59-12.67.98-4.22,1.57-8.22,1.75-11.99.17-3.77.27-6.82.27-9.16v-17.25h-.54c-4.67,7.55-11.01,13.48-19,17.79-8,4.31-17.38,6.47-28.16,6.47-9.16,0-17.79-1.66-25.87-4.99-8.09-3.32-15.14-7.9-21.16-13.74-6.02-5.84-10.78-12.62-14.28-20.35-3.51-7.72-5.26-15.99-5.26-24.8s1.75-17.07,5.26-24.79c3.5-7.73,8.26-14.46,14.28-20.22,6.02-5.75,13.08-10.33,21.16-13.74,8.09-3.41,16.71-5.12,25.87-5.12,10.78,0,20.16,2.15,28.16,6.47,7.99,4.31,14.33,10.24,19,17.79h.54v-21.02h16.17v116.43ZM542.24,742.71c0-6.82-1.31-13.25-3.9-19.27-2.61-6.02-6.11-11.23-10.51-15.63-4.41-4.4-9.61-7.9-15.63-10.51-6.03-2.6-12.45-3.91-19.27-3.91s-13.26,1.31-19.28,3.91c-6.02,2.61-11.23,6.11-15.63,10.51-4.41,4.41-7.91,9.61-10.52,15.63-2.61,6.02-3.9,12.45-3.9,19.27s1.3,13.25,3.9,19.27c2.61,6.02,6.11,11.23,10.52,15.63,4.4,4.41,9.61,7.91,15.63,10.51,6.02,2.61,12.44,3.91,19.28,3.91s13.24-1.3,19.27-3.91c6.02-2.6,11.22-6.11,15.63-10.51,4.4-4.4,7.9-9.61,10.51-15.63,2.6-6.02,3.9-12.44,3.9-19.27ZM590.48,744.33c0-9.52,1.62-18.28,4.85-26.28,3.24-8,7.73-14.91,13.48-20.75,5.75-5.84,12.67-10.38,20.75-13.61,8.09-3.24,16.89-4.85,26.41-4.85s18.28,1.62,26.28,4.85c8,3.24,14.91,7.77,20.75,13.61,5.84,5.84,10.38,12.76,13.61,20.75,3.24,8,4.85,16.75,4.85,26.28s-1.62,18.28-4.85,26.28-7.77,14.92-13.61,20.75c-5.84,5.84-12.76,10.38-20.75,13.61-8,3.23-16.75,4.85-26.28,4.85s-18.33-1.62-26.41-4.85c-8.09-3.24-15-7.77-20.75-13.61-5.75-5.84-10.24-12.76-13.48-20.75-3.23-8-4.85-16.75-4.85-26.28ZM606.66,744.33c0,7.01,1.12,13.61,3.37,19.81,2.25,6.2,5.52,11.59,9.84,16.17s9.52,8.22,15.63,10.91c6.11,2.7,12.94,4.04,20.48,4.04s14.37-1.35,20.48-4.04c6.11-2.69,11.32-6.33,15.63-10.91,4.31-4.58,7.59-9.97,9.84-16.17,2.25-6.2,3.37-12.8,3.37-19.81s-1.12-13.61-3.37-19.81c-2.25-6.2-5.53-11.59-9.84-16.17-4.31-4.58-9.52-8.22-15.63-10.92-6.11-2.7-12.94-4.04-20.48-4.04s-14.37,1.35-20.48,4.04c-6.11,2.7-11.32,6.34-15.63,10.92-4.31,4.58-7.59,9.97-9.84,16.17-2.25,6.2-3.37,12.8-3.37,19.81ZM862.97,771.55c0,2.34.09,5.17.27,8.49.18,3.33.31,6.7.4,10.11.09,3.42.22,6.61.4,9.57.18,2.97.27,5.26.27,6.87h-16.17c-.18-4.67-.32-9.16-.41-13.48-.09-4.31-.31-7.1-.67-8.36h-.81c-3.24,6.83-8.62,12.72-16.17,17.65-7.54,4.94-16.35,7.41-26.41,7.41s-17.65-1.53-23.85-4.58-11.05-7.05-14.55-11.99c-3.5-4.94-5.89-10.64-7.14-17.11-1.26-6.47-1.88-13.12-1.88-19.94v-74.12h16.17v73.31c0,5.03.45,9.93,1.35,14.69.89,4.76,2.47,9.03,4.72,12.8,2.25,3.77,5.39,6.78,9.43,9.03,4.04,2.25,9.3,3.37,15.76,3.37,5.93,0,11.54-1.03,16.85-3.1,5.3-2.06,9.88-5.21,13.74-9.43s6.92-9.52,9.16-15.9c2.25-6.38,3.37-13.88,3.37-22.5v-62.26h16.17v89.48ZM1016.33,784.76h-.54c-2.52,4.31-5.66,8.04-9.44,11.19-3.77,3.14-7.86,5.75-12.26,7.81-4.41,2.07-9.03,3.59-13.88,4.58-4.85.99-9.61,1.48-14.29,1.48-9.52,0-18.33-1.62-26.41-4.85-8.09-3.24-15-7.77-20.75-13.61-5.75-5.84-10.24-12.76-13.48-20.75-3.23-8-4.85-16.75-4.85-26.28s1.62-18.28,4.85-26.28c3.24-8,7.73-14.91,13.48-20.75,5.75-5.84,12.67-10.38,20.75-13.61,8.09-3.24,16.89-4.85,26.41-4.85,4.67,0,9.43.49,14.29,1.48,4.85.99,9.47,2.52,13.88,4.58,4.4,2.07,8.49,4.68,12.26,7.82,3.77,3.14,6.92,6.87,9.44,11.19h.54v-101.07h16.17v203.75h-16.17v-21.83ZM1017.94,744.33c0-7.01-1.35-13.61-4.04-19.81-2.69-6.2-6.38-11.59-11.05-16.17-4.68-4.58-10.15-8.22-16.44-10.92-6.29-2.7-13.12-4.04-20.48-4.04s-14.37,1.35-20.48,4.04c-6.11,2.7-11.32,6.34-15.63,10.92-4.31,4.58-7.59,9.97-9.84,16.17-2.25,6.2-3.37,12.8-3.37,19.81s1.12,13.61,3.37,19.81c2.25,6.2,5.52,11.59,9.84,16.17s9.52,8.22,15.63,10.91c6.11,2.7,12.94,4.04,20.48,4.04s14.19-1.35,20.48-4.04c6.29-2.69,11.76-6.33,16.44-10.91,4.67-4.58,8.36-9.97,11.05-16.17,2.7-6.2,4.04-12.8,4.04-19.81ZM421.5,476.64c-100.11,0-181.56-81.45-181.56-181.56s81.45-181.56,181.56-181.56,181.56,81.45,181.56,181.56-81.45,181.56-181.56,181.56ZM421.5,128.46c-91.87,0-166.62,74.75-166.62,166.62s74.75,166.62,166.62,166.62,166.62-74.75,166.62-166.62-74.74-166.62-166.62-166.62ZM421.5,443.86c-82.04,0-148.77-66.74-148.77-148.77s66.74-148.77,148.77-148.77,148.78,66.74,148.78,148.77-66.74,148.77-148.78,148.77ZM421.5,161.25c-73.8,0-133.83,60.04-133.83,133.83s60.04,133.83,133.83,133.83,133.83-60.04,133.83-133.83-60.04-133.83-133.83-133.83ZM421.5,509.39c-118.17,0-214.31-96.14-214.31-214.31s96.14-214.31,214.31-214.31,214.32,96.14,214.32,214.31-96.14,214.31-214.32,214.31ZM421.5,95.71c-109.93,0-199.37,89.44-199.37,199.37s89.44,199.37,199.37,199.37,199.37-89.44,199.37-199.37-89.44-199.37-199.37-199.37ZM421.5,543.17c-136.8,0-248.09-111.29-248.09-248.09S284.71,47,421.5,47s248.09,111.29,248.09,248.09-111.29,248.09-248.09,248.09ZM421.5,61.94c-128.56,0-233.14,104.59-233.14,233.15s104.59,233.14,233.14,233.14,233.14-104.59,233.14-233.14-104.59-233.15-233.14-233.15Z"/>
  </g>
</svg>