<svg viewBox="2.3816124469589814 142.87199999999999 831.1827439886846 297.65" version="1.1" xmlns:xlink="http://www.w3.org/1999/xlink" xmlns="http://www.w3.org/2000/svg" id="Laag_1" style="max-height: 500px" width="831.1827439886846" height="297.65">
  
  <defs>
    <style>
      .st0 {
        fill: none;
      }

      .st1 {
        fill: url(#Naamloos_verloop);
      }

      .st2 {
        fill: #e14692;
      }
    </style>
    <linearGradient gradientUnits="userSpaceOnUse" gradientTransform="translate(0 593.5) scale(1 -1)" y2="326.4" x2="767.7" y1="326.4" x1="54.9" data-name="Naamloos verloop" id="Naamloos_verloop">
      <stop stop-color="#efc981" offset="0"/>
      <stop stop-color="#f2d78f" offset=".2"/>
      <stop stop-color="#f8f0e4" offset=".4"/>
      <stop stop-color="#e6c248" offset=".7"/>
      <stop stop-color="#eec687" offset=".9"/>
    </linearGradient>
  </defs>
  <rect height="252.8" width="770" y="171.2" x="36" class="st0"/>
  <g>
    <g>
      <path d="M136.3,368.6h3.9l10.1,36.2h.1l10.3-36.2h4.9l10.3,36.2h.1l10.1-36.2h3.9l-11.9,40.9h-4.7l-10.3-36.4h-.1l-10.3,36.4h-4.7l-11.9-40.9h0Z" class="st2"/>
      <path d="M222.1,368.6h25v3.5h-21.2v14.5h19.9v3.5h-19.9v15.9h22.1v3.5h-25.9v-40.9h0Z" class="st2"/>
      <path d="M282.2,368.6h10.7c.5,0,1.3,0,2.2,0s1.9.1,3,.3,2.2.5,3.3.9c1.1.4,2.1,1,3,1.9.9.8,1.6,1.8,2.2,3.1s.9,2.7.9,4.5-.3,3.6-1,4.8c-.7,1.3-1.5,2.3-2.5,3.1-1,.8-2.1,1.4-3.4,1.8-1.2.4-2.4.6-3.5.8l11.9,19.6h-4.3l-11.5-19.4h-7.1v19.4h-3.8v-40.9h0ZM286.1,386.6h8.1c2,0,3.6-.2,4.9-.8s2.2-1.1,2.9-1.9,1.2-1.5,1.4-2.4.4-1.6.4-2.3-.1-1.5-.4-2.3-.7-1.6-1.4-2.4c-.7-.7-1.7-1.4-2.9-1.9-1.2-.5-2.9-.8-4.9-.8h-8.1v14.5h0Z" class="st2"/>
      <path d="M342.4,368.6h3.8v18h.4l19.8-18h5.2l-20.6,18.7,21.8,22.1h-5.5l-20.7-21.1h-.4v21.1h-3.8v-40.9h0Z" class="st2"/>
      <path d="M437.3,406.8c-2.4,1.4-4.9,2.3-7.4,2.9-2.6.6-5.2.8-7.8.8s-6-.5-8.6-1.6-4.8-2.5-6.7-4.4c-1.9-1.9-3.3-4.2-4.3-6.8-1-2.6-1.6-5.5-1.6-8.6s.5-6,1.6-8.6,2.5-4.9,4.3-6.8c1.9-1.9,4.1-3.4,6.7-4.5,2.6-1.1,5.5-1.6,8.6-1.6,6.1,0,11,1.9,14.7,5.6l-2.8,2.9c-.6-.7-1.4-1.4-2.3-2-.9-.6-1.9-1.2-2.9-1.6-1.1-.4-2.2-.8-3.3-1s-2.3-.4-3.4-.4c-2.6,0-5,.5-7.2,1.4s-4,2.2-5.5,3.8-2.6,3.5-3.5,5.7-1.2,4.6-1.2,7.1.4,4.9,1.2,7.1,2,4.1,3.5,5.7,3.3,2.9,5.5,3.8c2.1.9,4.5,1.4,7.2,1.4s4.2-.2,6.2-.5,3.7-1,5.2-1.9v-13.7h-9.8v-3.5h13.6v19.4h0Z" class="st2"/>
      <path d="M474.5,368.6h25v3.5h-21.2v14.5h19.9v3.5h-19.9v15.9h22.1v3.5h-25.9v-40.9h0Z" class="st2"/>
      <path d="M534.7,368.6h3.8v37.4h19v3.5h-22.8v-40.9h0Z" class="st2"/>
      <path d="M618.5,393.8c0,2.2-.2,4.3-.8,6.3s-1.3,3.8-2.5,5.3-2.7,2.8-4.6,3.7c-1.9.9-4.2,1.4-7,1.4s-5.1-.5-7-1.4c-1.9-.9-3.4-2.1-4.6-3.7s-2-3.3-2.5-5.3-.8-4.1-.8-6.3v-25.2h3.8v24.2c0,1.5.1,3,.4,4.7s.8,3.2,1.6,4.6c.8,1.4,1.9,2.6,3.3,3.5,1.4.9,3.3,1.4,5.7,1.4s4.3-.5,5.7-1.4,2.6-2.1,3.3-3.5c.8-1.4,1.3-3,1.6-4.6s.4-3.2.4-4.7v-24.2h3.8v25.2Z" class="st2"/>
      <path d="M654.9,368.6h3.8v18h.3l19.8-18h5.2l-20.7,18.7,21.8,22.1h-5.5l-20.7-21.1h-.3v21.1h-3.8v-40.9h0Z" class="st2"/>
    </g>
    <path d="M54.9,197.4h10.6l27.3,97.2h.3l27.8-97.2h13l27.8,97.2h.3l27.3-97.2h10.6l-31.9,109.8h-12.6l-27.8-97.7h-.3l-27.8,97.7h-12.6l-32-109.8h0ZM273.5,293.7c-3.6,5.5-8.1,9.4-13.4,11.8-5.3,2.4-11.2,3.6-17.6,3.6s-10.4-.9-14.9-2.8c-4.4-1.9-8.3-4.5-11.5-7.8-3.2-3.4-5.7-7.3-7.4-11.9-1.7-4.6-2.6-9.7-2.6-15.3s.9-10.3,2.6-14.9c1.8-4.6,4.2-8.5,7.4-11.9,3.2-3.4,7-6,11.3-7.9s9.1-2.9,14.4-2.9,10.3,1,14.5,2.9c4.2,1.9,7.7,4.4,10.5,7.6,2.8,3.2,5,6.8,6.4,10.8s2.2,8.1,2.2,12.2v6.5h-60.2c0,2,.4,4.5,1.2,7.5.8,3,2.2,6,4.3,8.9,2.1,2.9,4.8,5.4,8.3,7.4,3.5,2.1,7.9,3.1,13.4,3.1s9.4-1.1,13.8-3.4c4.4-2.3,7.9-5.4,10.2-9.3l6.8,5.7h0ZM266.3,265.3c0-3.2-.6-6.2-1.9-9-1.3-2.8-3-5.2-5.3-7.4-2.2-2.1-4.9-3.8-7.9-5-3.1-1.2-6.3-1.9-9.7-1.9-5.1,0-9.3,1-12.6,3.1s-6,4.4-8,7.1c-2,2.7-3.4,5.3-4.2,7.8-.8,2.5-1.2,4.3-1.2,5.2h50.9ZM296.4,255.7c0-1.3,0-3-.1-4.9-.1-1.9-.2-3.9-.2-5.8,0-2-.1-3.8-.2-5.5-.1-1.7-.1-3-.1-3.9h9.3c.1,2.7.2,5.3.2,7.8,0,2.5.2,4.1.4,4.8,2.4-4.2,5.4-7.7,9.1-10.4s8.3-4,13.6-4,1.8,0,2.7.2,1.8.3,2.7.5l-1.1,9.1c-1.2-.4-2.4-.6-3.6-.6-4,0-7.5.6-10.5,1.9-3,1.3-5.4,3.1-7.3,5.4-1.9,2.3-3.3,4.9-4.3,8-.9,3-1.4,6.3-1.4,9.9v39.1h-9.3v-51.5h0ZM348,189.9h9.3v78.2l35.4-32.4h13.6l-36.9,32.7,41.2,38.8h-14.1l-39.2-37.8v37.8h-9.3v-117.2h0ZM494.6,302.5c0,8.9-1.3,16.1-3.9,21.6-2.6,5.5-5.8,9.7-9.7,12.7s-8,5-12.5,6c-4.5,1-8.5,1.5-12.1,1.5s-7.2-.3-10.6-1-6.7-1.6-9.9-3c-3.1-1.3-5.9-2.9-8.5-4.7-2.5-1.9-4.7-4-6.6-6.4l7.3-6.8c3.3,4.6,7.4,8.1,12.4,10.2,5,2.2,10.2,3.3,15.8,3.3s8.8-.6,12-1.9c3.2-1.2,5.9-2.9,8.1-4.9s3.8-4.2,5-6.7c1.2-2.4,2.1-4.9,2.6-7.3.6-2.4.9-4.7,1-6.9.1-2.2.1-3.9.1-5.3v-9.9h-.3c-2.7,4.3-6.3,7.8-10.9,10.2-4.6,2.5-10,3.7-16.2,3.7s-10.2-1-14.9-2.9c-4.6-1.9-8.7-4.5-12.2-7.9-3.5-3.4-6.2-7.3-8.2-11.7-2-4.4-3-9.2-3-14.3s1-9.8,3-14.3c2-4.4,4.8-8.3,8.2-11.6,3.5-3.3,7.5-5.9,12.2-7.9,4.6-2,9.6-2.9,14.9-2.9s11.6,1.2,16.2,3.7c4.6,2.5,8.2,5.9,10.9,10.2h.3v-12.1h9.3v67h0ZM485.6,270.4c0-3.9-.8-7.6-2.2-11.1-1.5-3.5-3.5-6.5-6-9-2.5-2.5-5.5-4.6-9-6.1s-7.2-2.2-11.1-2.2-7.6.8-11.1,2.2-6.5,3.5-9,6.1c-2.5,2.5-4.5,5.5-6,9s-2.2,7.2-2.2,11.1.8,7.6,2.2,11.1c1.5,3.5,3.5,6.5,6,9,2.5,2.5,5.5,4.5,9,6s7.2,2.2,11.1,2.2,7.6-.8,11.1-2.2c3.5-1.5,6.5-3.5,9-6,2.5-2.5,4.5-5.5,6-9,1.5-3.5,2.2-7.2,2.2-11.1ZM513.4,271.4c0-5.5.9-10.5,2.8-15.1s4.5-8.6,7.8-11.9c3.3-3.4,7.3-6,11.9-7.8s9.7-2.8,15.2-2.8,10.5.9,15.1,2.8,8.6,4.5,11.9,7.8,6,7.3,7.8,11.9c1.9,4.6,2.8,9.6,2.8,15.1s-.9,10.5-2.8,15.1-4.5,8.6-7.8,11.9-7.3,6-11.9,7.8-9.6,2.8-15.1,2.8-10.5-.9-15.2-2.8c-4.7-1.9-8.6-4.5-11.9-7.8s-5.9-7.3-7.8-11.9-2.8-9.6-2.8-15.1ZM522.7,271.4c0,4,.6,7.8,1.9,11.4,1.3,3.6,3.2,6.7,5.7,9.3s5.5,4.7,9,6.3c3.5,1.5,7.4,2.3,11.8,2.3s8.3-.8,11.8-2.3c3.5-1.5,6.5-3.6,9-6.3,2.5-2.6,4.4-5.7,5.7-9.3s1.9-7.4,1.9-11.4-.7-7.8-1.9-11.4-3.2-6.7-5.7-9.3c-2.5-2.6-5.5-4.7-9-6.3-3.5-1.6-7.4-2.3-11.8-2.3s-8.3.8-11.8,2.3c-3.5,1.6-6.5,3.6-9,6.3-2.5,2.6-4.4,5.7-5.7,9.3-1.3,3.6-1.9,7.4-1.9,11.4ZM670.2,287c0,1.3,0,3,.2,4.9,0,1.9.2,3.9.2,5.8s.1,3.8.2,5.5c0,1.7.2,3,.2,4h-9.3c0-2.7-.2-5.3-.2-7.8s-.2-4.1-.4-4.8h-.5c-1.9,3.9-5,7.3-9.3,10.2-4.3,2.8-9.4,4.3-15.2,4.3s-10.2-.9-13.7-2.6-6.4-4.1-8.4-6.9c-2-2.8-3.4-6.1-4.1-9.9s-1.1-7.5-1.1-11.5v-42.6h9.3v42.2c0,2.9.3,5.7.8,8.5.5,2.7,1.4,5.2,2.7,7.4,1.3,2.2,3.1,3.9,5.4,5.2,2.3,1.3,5.3,1.9,9.1,1.9s6.6-.6,9.7-1.8,5.7-3,7.9-5.4,4-5.5,5.3-9.1c1.3-3.7,1.9-8,1.9-13v-35.8h9.3v51.5h0ZM758.4,294.6h-.3c-1.5,2.5-3.3,4.6-5.4,6.4s-4.5,3.3-7,4.5c-2.5,1.2-5.2,2.1-8,2.6s-5.5.9-8.2.9c-5.5,0-10.5-.9-15.2-2.8-4.7-1.9-8.6-4.5-11.9-7.8s-5.9-7.3-7.8-11.9-2.8-9.6-2.8-15.1.9-10.5,2.8-15.1,4.5-8.6,7.8-11.9c3.3-3.4,7.3-6,11.9-7.8s9.7-2.8,15.2-2.8,5.4.3,8.2.9,5.5,1.4,8,2.6c2.5,1.2,4.9,2.7,7,4.5,2.2,1.8,4,4,5.4,6.4h.3v-58.2h9.3v117.2h-9.3v-12.6h0ZM759.3,271.4c0-4-.8-7.8-2.3-11.4-1.5-3.6-3.7-6.7-6.4-9.3-2.7-2.6-5.8-4.7-9.5-6.3s-7.5-2.3-11.8-2.3-8.3.8-11.8,2.3c-3.5,1.6-6.5,3.6-9,6.3-2.5,2.6-4.4,5.7-5.7,9.3-1.3,3.6-1.9,7.4-1.9,11.4s.6,7.8,1.9,11.4c1.3,3.6,3.2,6.7,5.7,9.3,2.5,2.6,5.5,4.7,9,6.3,3.5,1.5,7.4,2.3,11.8,2.3s8.2-.8,11.8-2.3c3.6-1.5,6.8-3.6,9.5-6.3,2.7-2.6,4.8-5.7,6.4-9.3s2.3-7.4,2.3-11.4Z" class="st1"/>
  </g>
</svg>