<?xml version="1.0" encoding="UTF-8"?>
<svg id="Laag_1" data-name="Laag 1" xmlns="http://www.w3.org/2000/svg" xmlns:xlink="http://www.w3.org/1999/xlink" viewBox="0 0 841.89 595.28">
  <defs>
    <style>
      .cls-1 {
        fill: #1e2546;
      }

      .cls-2 {
        fill: url(#Naamloos_verloop_149);
      }

      .cls-3 {
        fill: #e14692;
      }
    </style>
    <linearGradient id="Naamloos_verloop_149" data-name="Naamloos verloop 149" x1="202.96" y1="265.05" x2="633.13" y2="265.05" gradientUnits="userSpaceOnUse">
      <stop offset="0" stop-color="#efc981"/>
      <stop offset=".19" stop-color="#f2d78f"/>
      <stop offset=".41" stop-color="#f8f0e4"/>
      <stop offset=".73" stop-color="#e6c248"/>
      <stop offset=".95" stop-color="#eec687"/>
    </linearGradient>
  </defs>
  <rect class="cls-1" x="10.97" y="13.52" width="819.95" height="568.24" rx="16.18" ry="16.18"/>
  <g>
    <path class="cls-3" d="M252.09,422.78h2.37l6.13,21.83h.07l6.23-21.83h2.93l6.23,21.83h.07l6.13-21.83h2.37l-7.17,24.65h-2.82l-6.23-21.94h-.07l-6.23,21.94h-2.82l-7.17-24.65Z"/>
    <path class="cls-3" d="M303.83,422.78h15.08v2.09h-12.78v8.78h11.98v2.09h-11.98v9.61h13.34v2.09h-15.63v-24.65Z"/>
    <path class="cls-3" d="M340.15,422.78h6.48c.32,0,.77.01,1.32.04s1.16.09,1.81.21c.65.12,1.31.3,1.98.56.67.26,1.28.63,1.81,1.11.53.49.98,1.1,1.32,1.85s.52,1.65.52,2.72c0,1.18-.2,2.16-.61,2.92-.41.77-.92,1.39-1.53,1.86-.61.48-1.29.83-2.04,1.06-.74.23-1.45.39-2.12.49l7.17,11.84h-2.61l-6.93-11.7h-4.28v11.7h-2.3v-24.65ZM342.45,433.64h4.88c1.21,0,2.19-.15,2.94-.45.75-.3,1.34-.67,1.76-1.12.42-.44.7-.92.85-1.43.15-.51.23-.98.23-1.39s-.08-.88-.23-1.39-.44-.99-.85-1.43c-.42-.44-1.01-.81-1.76-1.11-.75-.3-1.74-.45-2.94-.45h-4.88v8.78Z"/>
    <path class="cls-3" d="M376.46,422.78h2.3v10.86h.21l11.94-10.86h3.17l-12.46,11.28,13.16,13.37h-3.31l-12.5-12.74h-.21v12.74h-2.3v-24.65Z"/>
    <path class="cls-3" d="M433.74,445.83c-1.44.81-2.93,1.39-4.47,1.72-1.54.34-3.12.5-4.72.5-1.88,0-3.6-.32-5.17-.96-1.57-.64-2.91-1.53-4.02-2.68-1.11-1.15-1.98-2.52-2.61-4.11-.63-1.59-.94-3.33-.94-5.21s.31-3.61.94-5.19,1.5-2.94,2.61-4.09c1.11-1.15,2.45-2.05,4.02-2.7,1.57-.65,3.29-.97,5.17-.97,3.67,0,6.63,1.14,8.88,3.41l-1.67,1.74c-.37-.44-.83-.85-1.38-1.24-.55-.38-1.14-.71-1.78-.98-.64-.27-1.31-.48-2-.63-.7-.15-1.38-.23-2.05-.23-1.6,0-3.05.28-4.33.83s-2.39,1.32-3.29,2.3-1.6,2.12-2.09,3.45-.73,2.75-.73,4.28.24,2.96.73,4.28,1.18,2.47,2.09,3.45,2,1.74,3.29,2.3,2.73.84,4.33.84c1.32,0,2.56-.1,3.73-.31s2.22-.59,3.17-1.15v-8.29h-5.92v-2.09h8.22v11.7Z"/>
    <path class="cls-3" d="M456.16,422.78h15.08v2.09h-12.78v8.78h11.98v2.09h-11.98v9.61h13.34v2.09h-15.63v-24.65Z"/>
    <path class="cls-3" d="M492.48,422.78h2.3v22.56h11.49v2.09h-13.79v-24.65Z"/>
    <path class="cls-3" d="M543.07,437.99c0,1.32-.15,2.59-.45,3.79-.3,1.21-.81,2.28-1.51,3.2-.71.93-1.64,1.67-2.79,2.23-1.15.56-2.56.84-4.23.84s-3.08-.28-4.23-.84c-1.15-.56-2.08-1.3-2.79-2.23s-1.21-2-1.51-3.2c-.3-1.21-.45-2.47-.45-3.79v-15.22h2.3v14.62c0,.88.08,1.82.24,2.82s.48,1.93.96,2.79c.48.86,1.15,1.57,2.02,2.12s2.02.84,3.46.84,2.59-.28,3.46-.84,1.54-1.27,2.02-2.12c.48-.86.79-1.79.96-2.79s.24-1.94.24-2.82v-14.62h2.3v15.22Z"/>
    <path class="cls-3" d="M565.04,422.78h2.3v10.86h.21l11.94-10.86h3.17l-12.46,11.28,13.16,13.37h-3.31l-12.5-12.74h-.21v12.74h-2.3v-24.65Z"/>
  </g>
  <path class="cls-2" d="M202.96,319.45h6.36l16.47,58.69h.19l16.75-58.69h7.86l16.75,58.69h.19l16.47-58.69h6.36l-19.28,66.27h-7.58l-16.75-58.97h-.19l-16.75,58.97h-7.58l-19.28-66.27ZM334.84,377.57c-2.19,3.31-4.88,5.68-8.1,7.11-3.21,1.44-6.75,2.15-10.62,2.15-3.31,0-6.3-.56-8.98-1.68-2.68-1.12-4.99-2.7-6.93-4.73-1.93-2.03-3.42-4.43-4.45-7.21-1.03-2.78-1.54-5.85-1.54-9.22s.53-6.24,1.59-8.99c1.06-2.74,2.56-5.13,4.49-7.16,1.93-2.03,4.21-3.62,6.83-4.77,2.62-1.15,5.52-1.73,8.7-1.73s6.22.58,8.75,1.73c2.53,1.16,4.65,2.68,6.36,4.59,1.72,1.9,3.01,4.07,3.88,6.5.87,2.43,1.31,4.9,1.31,7.39v3.93h-36.32c0,1.19.23,2.7.7,4.54.47,1.84,1.33,3.63,2.57,5.38,1.25,1.75,2.92,3.25,5.01,4.49,2.09,1.25,4.79,1.87,8.1,1.87,2.87,0,5.65-.68,8.33-2.06,2.68-1.37,4.74-3.24,6.18-5.62l4.12,3.46ZM330.53,360.44c0-1.93-.39-3.74-1.17-5.43-.78-1.68-1.84-3.17-3.18-4.45-1.34-1.28-2.93-2.29-4.77-3.04-1.84-.75-3.79-1.12-5.85-1.12-3.06,0-5.6.62-7.63,1.87-2.03,1.25-3.64,2.68-4.82,4.31-1.19,1.62-2.03,3.2-2.53,4.73-.5,1.53-.75,2.57-.75,3.14h30.7ZM348.69,354.64c0-.81-.03-1.79-.09-2.95-.06-1.15-.11-2.32-.14-3.51-.03-1.18-.08-2.29-.14-3.32-.06-1.03-.09-1.82-.09-2.39h5.62c.06,1.62.11,3.18.14,4.68.03,1.5.11,2.47.23,2.9,1.44-2.56,3.28-4.65,5.52-6.27,2.25-1.62,4.99-2.43,8.24-2.43.56,0,1.11.05,1.64.14.53.09,1.08.2,1.64.33l-.65,5.52c-.75-.25-1.47-.37-2.15-.37-2.43,0-4.54.39-6.32,1.17-1.78.78-3.24,1.86-4.4,3.23-1.16,1.37-2.01,2.98-2.57,4.82-.56,1.84-.84,3.82-.84,5.94v23.59h-5.62v-31.07ZM379.86,314.95h5.62v47.17l21.34-19.56h8.24l-22.28,19.75,24.9,23.4h-8.52l-23.68-22.84v22.84h-5.62v-70.76ZM468.31,382.91c0,5.37-.78,9.7-2.34,13.01-1.56,3.31-3.51,5.86-5.85,7.67-2.34,1.81-4.85,3.03-7.53,3.65-2.68.62-5.12.94-7.3.94s-4.32-.2-6.41-.61-4.07-1-5.94-1.78c-1.87-.78-3.57-1.73-5.1-2.85-1.53-1.12-2.85-2.4-3.98-3.84l4.4-4.12c2,2.81,4.49,4.87,7.49,6.18s6.18,1.97,9.55,1.97c2.87,0,5.29-.37,7.26-1.12,1.96-.75,3.59-1.73,4.87-2.95s2.28-2.56,3-4.03c.72-1.47,1.25-2.93,1.59-4.4.34-1.47.54-2.85.61-4.17.06-1.31.09-2.37.09-3.18v-5.99h-.19c-1.62,2.62-3.82,4.68-6.6,6.18-2.78,1.5-6.04,2.25-9.78,2.25-3.18,0-6.18-.58-8.99-1.73-2.81-1.15-5.26-2.74-7.35-4.77-2.09-2.03-3.74-4.38-4.96-7.07-1.22-2.68-1.83-5.55-1.83-8.61s.61-5.93,1.83-8.61c1.22-2.68,2.87-5.02,4.96-7.02,2.09-2,4.54-3.59,7.35-4.77,2.81-1.18,5.8-1.78,8.99-1.78,3.74,0,7,.75,9.78,2.25,2.78,1.5,4.98,3.56,6.6,6.18h.19v-7.3h5.62v40.43ZM462.88,363.53c0-2.37-.45-4.6-1.36-6.69-.9-2.09-2.12-3.9-3.65-5.43-1.53-1.53-3.34-2.74-5.43-3.65-2.09-.9-4.32-1.36-6.69-1.36s-4.6.45-6.69,1.36c-2.09.9-3.9,2.12-5.43,3.65-1.53,1.53-2.75,3.34-3.65,5.43-.9,2.09-1.36,4.32-1.36,6.69s.45,4.6,1.36,6.69c.9,2.09,2.12,3.9,3.65,5.43,1.53,1.53,3.34,2.75,5.43,3.65,2.09.9,4.32,1.36,6.69,1.36s4.6-.45,6.69-1.36c2.09-.9,3.9-2.12,5.43-3.65,1.53-1.53,2.74-3.34,3.65-5.43.9-2.09,1.36-4.32,1.36-6.69ZM479.63,364.09c0-3.31.56-6.35,1.68-9.13,1.12-2.78,2.68-5.18,4.68-7.21,2-2.03,4.4-3.6,7.21-4.73s5.87-1.68,9.17-1.68,6.35.56,9.13,1.68,5.18,2.7,7.21,4.73c2.03,2.03,3.6,4.43,4.73,7.21s1.68,5.82,1.68,9.13-.56,6.35-1.68,9.13-2.7,5.18-4.73,7.21-4.43,3.6-7.21,4.73c-2.78,1.12-5.82,1.68-9.13,1.68s-6.36-.56-9.17-1.68c-2.81-1.12-5.21-2.7-7.21-4.73-2-2.03-3.56-4.43-4.68-7.21-1.12-2.78-1.68-5.82-1.68-9.13ZM485.24,364.09c0,2.43.39,4.73,1.17,6.88.78,2.15,1.92,4.03,3.42,5.62s3.31,2.85,5.43,3.79c2.12.94,4.49,1.4,7.11,1.4s4.99-.47,7.11-1.4c2.12-.94,3.93-2.2,5.43-3.79,1.5-1.59,2.64-3.46,3.42-5.62.78-2.15,1.17-4.45,1.17-6.88s-.39-4.73-1.17-6.88c-.78-2.15-1.92-4.02-3.42-5.61-1.5-1.59-3.31-2.85-5.43-3.79-2.12-.94-4.49-1.4-7.11-1.4s-4.99.47-7.11,1.4c-2.12.94-3.93,2.2-5.43,3.79s-2.64,3.46-3.42,5.61c-.78,2.15-1.17,4.45-1.17,6.88ZM574.26,373.55c0,.81.03,1.79.09,2.95.06,1.16.11,2.33.14,3.51.03,1.19.08,2.29.14,3.32.06,1.03.09,1.83.09,2.39h-5.61c-.06-1.62-.11-3.18-.14-4.68s-.11-2.46-.23-2.9h-.28c-1.12,2.37-3,4.42-5.62,6.13-2.62,1.71-5.68,2.57-9.17,2.57s-6.13-.53-8.28-1.59-3.84-2.45-5.05-4.17c-1.22-1.71-2.04-3.7-2.48-5.94-.44-2.25-.65-4.55-.65-6.93v-25.74h5.61v25.46c0,1.75.16,3.45.47,5.1.31,1.65.86,3.14,1.64,4.45.78,1.31,1.87,2.36,3.28,3.14,1.4.78,3.23,1.17,5.47,1.17,2.06,0,4.01-.36,5.85-1.08,1.84-.72,3.43-1.81,4.77-3.28s2.4-3.31,3.18-5.52c.78-2.21,1.17-4.82,1.17-7.82v-21.62h5.62v31.07ZM627.51,378.13h-.19c-.87,1.5-1.97,2.79-3.28,3.88-1.31,1.09-2.73,2-4.26,2.71-1.53.72-3.14,1.25-4.82,1.59-1.69.34-3.34.52-4.96.52-3.31,0-6.36-.56-9.17-1.68-2.81-1.12-5.21-2.7-7.21-4.73-2-2.03-3.56-4.43-4.68-7.21-1.12-2.78-1.68-5.82-1.68-9.13s.56-6.35,1.68-9.13c1.12-2.78,2.68-5.18,4.68-7.21,2-2.03,4.4-3.6,7.21-4.73s5.87-1.68,9.17-1.68c1.62,0,3.28.17,4.96.51,1.68.34,3.29.87,4.82,1.59,1.53.72,2.95,1.62,4.26,2.71,1.31,1.09,2.4,2.39,3.28,3.88h.19v-35.1h5.61v70.76h-5.61v-7.58ZM628.08,364.09c0-2.43-.47-4.73-1.4-6.88-.94-2.15-2.22-4.02-3.84-5.61-1.62-1.59-3.53-2.85-5.71-3.79-2.19-.94-4.56-1.4-7.11-1.4s-4.99.47-7.11,1.4c-2.12.94-3.93,2.2-5.43,3.79s-2.64,3.46-3.42,5.61c-.78,2.15-1.17,4.45-1.17,6.88s.39,4.73,1.17,6.88c.78,2.15,1.92,4.03,3.42,5.62s3.31,2.85,5.43,3.79c2.12.94,4.49,1.4,7.11,1.4s4.93-.47,7.11-1.4c2.18-.94,4.09-2.2,5.71-3.79,1.62-1.59,2.9-3.46,3.84-5.62.94-2.15,1.4-4.45,1.4-6.88ZM420.94,271.13c-34.77,0-63.05-28.28-63.05-63.05s28.28-63.05,63.05-63.05,63.05,28.29,63.05,63.05-28.29,63.05-63.05,63.05ZM420.94,150.22c-31.91,0-57.86,25.96-57.86,57.86s25.96,57.86,57.86,57.86,57.86-25.96,57.86-57.86-25.96-57.86-57.86-57.86ZM420.94,259.74c-28.49,0-51.67-23.18-51.67-51.67s23.18-51.67,51.67-51.67,51.67,23.18,51.67,51.67-23.18,51.67-51.67,51.67ZM420.94,161.6c-25.63,0-46.48,20.85-46.48,46.48s20.85,46.48,46.48,46.48,46.48-20.85,46.48-46.48-20.85-46.48-46.48-46.48ZM420.94,282.5c-41.04,0-74.43-33.39-74.43-74.42s33.39-74.43,74.43-74.43,74.43,33.39,74.43,74.43-33.39,74.42-74.43,74.42ZM420.94,138.84c-38.18,0-69.24,31.06-69.24,69.24s31.06,69.24,69.24,69.24,69.24-31.06,69.24-69.24-31.06-69.24-69.24-69.24ZM420.94,294.23c-47.51,0-86.15-38.65-86.15-86.15s38.65-86.16,86.15-86.16,86.16,38.65,86.16,86.16-38.65,86.15-86.16,86.15ZM420.94,127.11c-44.64,0-80.97,36.32-80.97,80.97s36.32,80.97,80.97,80.97,80.97-36.32,80.97-80.97-36.32-80.97-80.97-80.97Z"/>
</svg>